<?xml version="1.0" standalone="no"?>
<!DOCTYPE svg PUBLIC "-//W3C//DTD SVG 20010904//EN"
 "http://www.w3.org/TR/2001/REC-SVG-20010904/DTD/svg10.dtd">
<svg version="1.0" xmlns="http://www.w3.org/2000/svg"
 width="512.000000pt" height="512.000000pt" viewBox="0 0 512.000000 512.000000"
 preserveAspectRatio="xMidYMid meet">
<metadata>
Created by potrace 1.11, written by Peter Selinger 2001-2013
</metadata>
<g transform="translate(0.000000,512.000000) scale(0.100000,-0.100000)"
fill="#000000" stroke="none">
<path d="M1597 3873 l-23 -48 -707 -3 -707 -2 -16 -33 c-9 -17 -36 -53 -59
-79 -86 -96 -80 -36 -83 -811 -1 -379 1 -686 5 -684 26 15 1191 687 1301 750
l132 76 -2 -386 -3 -385 -135 -78 c-74 -43 -396 -229 -715 -414 l-580 -335 -3
-225 -2 -226 720 0 720 0 0 -55 0 -55 1120 0 1120 0 0 55 0 55 720 0 720 0 0
825 0 826 -22 -12 c-13 -7 -120 -69 -238 -137 -118 -69 -417 -242 -665 -384
-247 -143 -465 -269 -483 -280 l-32 -20 2 388 3 387 715 413 715 412 3 81 c3
98 -13 142 -83 221 -26 29 -52 66 -57 82 l-10 28 -708 0 -708 0 -24 50 -23 49
-942 1 -942 0 -24 -47z m2073 -806 l0 -414 -212 -123 c-117 -68 -602 -348
-1078 -622 -476 -275 -880 -509 -897 -520 l-33 -20 0 415 0 415 992 572 c546
315 1045 603 1108 641 63 37 116 68 118 68 1 1 2 -185 2 -412z"/>
</g>
</svg>
