<?xml version="1.0" standalone="no"?>
<!DOCTYPE svg PUBLIC "-//W3C//DTD SVG 20010904//EN"
 "http://www.w3.org/TR/2001/REC-SVG-20010904/DTD/svg10.dtd">
<svg version="1.0" xmlns="http://www.w3.org/2000/svg"
 width="512.000000pt" height="512.000000pt" viewBox="0 0 512.000000 512.000000"
 preserveAspectRatio="xMidYMid meet">
<metadata>
Created by potrace 1.11, written by Peter Selinger 2001-2013
</metadata>
<g transform="translate(0.000000,512.000000) scale(0.100000,-0.100000)"
fill="#000000" stroke="none">
<path d="M2399 5036 c-2 -2 -31 -7 -64 -10 -341 -37 -706 -197 -969 -426 -38
-32 -173 -167 -207 -206 -66 -75 -166 -223 -227 -335 -51 -93 -140 -322 -156
-405 -3 -11 -9 -39 -14 -64 -6 -25 -13 -63 -16 -85 -3 -22 -10 -69 -15 -105
-9 -65 -7 -393 3 -440 2 -14 7 -43 11 -65 8 -57 33 -160 54 -230 125 -400 373
-739 719 -979 l82 -58 0 -292 0 -292 -30 -11 c-29 -11 -50 -45 -50 -82 0 -23
29 -56 58 -65 20 -7 22 -13 22 -87 0 -65 -3 -79 -15 -79 -25 0 -65 -50 -65
-80 0 -31 25 -64 58 -74 18 -6 22 -15 22 -46 0 -35 8 -46 80 -119 l80 -81 192
0 193 -1 34 -47 c184 -258 592 -251 772 13 18 26 31 35 54 35 17 1 103 1 192
1 l163 -1 80 81 80 81 0 77 c0 76 1 76 33 92 60 30 58 119 -3 142 -30 11 -30
12 -30 88 0 75 1 77 28 87 64 22 67 113 5 142 l-33 15 0 252 0 252 63 42 c252
170 476 421 613 689 21 41 39 77 39 80 0 3 3 10 7 15 22 35 103 277 114 340 2
17 12 66 20 110 19 94 26 398 13 495 -5 36 -12 83 -15 105 -12 91 -48 220 -99
365 -28 77 -119 253 -175 336 -162 243 -356 429 -605 579 -175 106 -430 200
-620 229 -22 4 -56 9 -75 12 -41 7 -395 15 -401 10z"/>
</g>
</svg>
